<?xml version="1.0" standalone="no"?><!DOCTYPE svg PUBLIC "-//W3C//DTD SVG 1.1//EN" "http://www.w3.org/Graphics/SVG/1.1/DTD/svg11.dtd"><svg t="1553503025855" class="icon" style="" viewBox="0 0 1024 1024" version="1.1" xmlns="http://www.w3.org/2000/svg" p-id="1359" xmlns:xlink="http://www.w3.org/1999/xlink" width="200" height="200"><defs><style type="text/css"></style></defs><path d="M912.896654 850.965787c0 95.537021-78.978723 173.034213-176.476596 173.034213h-52.289362c-42.136511 0-76.255319-33.356255-76.255319-74.51234v-192.599149c0-34.336681-28.323404-62.137191-63.204766-62.137192-34.859574 0-63.182979 27.800511-63.182979 62.137192v192.599149c0 41.156085-34.140596 74.51234-76.255319 74.51234h-52.289362c-97.51966 0-176.498383-77.497191-176.498382-173.034213v-203.340255C120.669249 645.381447 76.245079 600.369021 76.245079 545.225532c0-25.6 9.804255-50.306723 27.451915-69.196255L414.535462 143.316426c65.862809-70.503489 177.565957-75.274894 249.442043-10.632171 3.769191 3.377021 7.385872 6.92834 10.828255 10.632171l310.838468 332.691063a101.049191 101.049191 0 0 1-6.405447 144.732596 105.71166 105.71166 0 0 1-66.342127 26.885447v203.340255z" fill="#BAB9B5" p-id="1360"></path><path d="M586.066356 696.211064c0-53.160851-42.920851-96.256-95.86383-96.256-52.942979 0-95.86383 43.095149-95.86383 96.256V893.276596a43.574468 43.574468 0 0 1-43.574468 43.574468h-52.289362c-79.436255 0-143.817532-64.642723-143.817532-144.384V551.827064H126.355717A72.050383 72.050383 0 0 1 54.457845 479.62417c0-18.061617 6.754043-35.469617 18.889532-48.781617L384.185845 90.417021a143.403574 143.403574 0 0 1 212.033362 0l310.838468 340.447319a72.398979 72.398979 0 0 1-4.422809 102.00783c-13.268426 12.200851-30.611064 18.954894-48.585532 18.954894H825.72593v240.661787c0 79.741277-64.381277 144.384-143.795744 144.384h-52.289362a43.574468 43.574468 0 0 1-43.574468-43.574468v-197.065532z" fill="#F9A737" p-id="1361"></path><path d="M607.85359 696.211064V893.276596a21.787234 21.787234 0 0 0 21.787234 21.787234h52.289362c67.387915 0 122.030298-54.860255 122.030297-122.596766V530.03983H854.049334c12.505872 0 24.576-4.706043 33.835575-13.224851a50.611745 50.611745 0 0 0 3.072-71.266043L580.118441 105.07983a121.61634 121.61634 0 0 0-179.83183 0L89.448143 445.548936A50.546383 50.546383 0 0 0 76.245079 479.62417a50.263149 50.263149 0 0 0 50.110638 50.41566H176.466356v262.427234c0 67.736511 54.642383 122.596766 122.00851 122.596766h52.289362a21.787234 21.787234 0 0 0 21.787234-21.787234v-197.065532c0-65.165617 52.681532-118.043234 117.672851-118.043234 64.991319 0 117.651064 52.877617 117.651064 118.043234z m-21.787234 0c0-53.160851-42.920851-96.256-95.86383-96.256-52.942979 0-95.86383 43.095149-95.86383 96.256V893.276596a43.574468 43.574468 0 0 1-43.574468 43.574468h-52.289362c-79.436255 0-143.817532-64.642723-143.817532-144.384V551.827064H126.355717A72.050383 72.050383 0 0 1 54.457845 479.62417c0-18.061617 6.754043-35.469617 18.889532-48.781617L384.185845 90.417021a143.403574 143.403574 0 0 1 212.033362 0l310.838468 340.447319a72.398979 72.398979 0 0 1-4.422809 102.00783c-13.268426 12.200851-30.611064 18.954894-48.585532 18.954894H825.72593v240.661787c0 79.741277-64.381277 144.384-143.795744 144.384h-52.289362a43.574468 43.574468 0 0 1-43.574468-43.574468v-197.065532z" fill="#B18450" p-id="1362"></path><path d="M607.85359 696.211064V893.276596a21.787234 21.787234 0 0 0 21.787234 21.787234h52.289362c67.387915 0 122.030298-54.860255 122.030297-122.596766V530.03983H854.049334c12.505872 0 24.576-4.706043 33.835575-13.224851a50.611745 50.611745 0 0 0 3.072-71.266043L580.118441 105.07983a121.61634 121.61634 0 0 0-179.83183 0L89.448143 445.548936A50.546383 50.546383 0 0 0 76.245079 479.62417a50.263149 50.263149 0 0 0 50.110638 50.41566H176.466356v262.427234c0 67.736511 54.642383 122.596766 122.00851 122.596766h52.289362a21.787234 21.787234 0 0 0 21.787234-21.787234v-197.065532c0-65.165617 52.681532-118.043234 117.672851-118.043234 64.991319 0 117.651064 52.877617 117.651064 118.043234z" fill="#F9A737" p-id="1363"></path></svg>